<svg width="94" height="130" viewBox="0 0 94 130" fill="none" xmlns="http://www.w3.org/2000/svg">
<rect width="94" height="130" rx="10" fill="black" fill-opacity="0.8"/>
<rect x="20.4893" y="65.5845" width="49" height="25" transform="rotate(-17.9652 20.4893 65.5845)" stroke="#EAE8FE" stroke-width="2"/>
<rect x="24.2689" y="67.513" width="43" height="19" transform="rotate(-17.9652 24.2689 67.513)" stroke="#EAE8FE" stroke-width="2"/>
<path d="M42.2936 68.8861L40.0563 69.6116L39.5684 68.1067L41.8057 67.3812L42.2936 68.8861ZM37.9122 70.3068L36.5938 70.7343L37.1379 72.4123L46.2869 69.4457L45.7429 67.7677L44.4377 68.1909L43.9498 66.686L45.3881 66.2197L44.844 64.5417L35.4419 67.5903L35.986 69.2683L37.4243 68.8019L37.9122 70.3068ZM45.7218 75.7367L41.2605 77.1833L40.9971 76.371L45.4584 74.9244L45.7218 75.7367ZM48.1087 71.3422L47.5647 69.6643L36.2582 73.3304L36.8023 75.0084L41.3834 73.5229L41.6425 74.322L38.3398 75.3929L39.6828 79.5346L48.379 76.7148L47.0361 72.5731L43.8 73.6224L43.5409 72.8234L48.1087 71.3422ZM54.2348 63.8221L54.7832 65.5134L56.3813 64.9952L57.0895 67.1793L59.2469 66.4797L57.2087 60.1939L55.0513 60.8934L55.8329 63.3039L54.2348 63.8221ZM55.701 65.8928C53.73 65.9873 52.6568 65.1285 52.1696 64.0796L54.4069 63.3542L53.8628 61.6762L47.1242 63.8612L47.6683 65.5392L49.9189 64.8094C50.1485 65.9712 49.7733 67.4469 48.0722 68.646L49.6151 70.0002C50.9282 69.1476 51.5931 67.9754 51.8112 66.742C52.6505 67.5148 53.7979 67.9669 55.2463 67.8947L55.701 65.8928ZM54.4523 72.9353L54.3141 72.5092L60.5467 70.4883L59.3894 66.9192L51.0127 69.6353L51.5396 71.26L57.7854 69.2348L57.9193 69.6477L51.6867 71.6686L52.8526 75.2643L61.5223 72.4531L60.9911 70.8151L54.4523 72.9353Z" fill="#EAE8FE"/>
</svg>
