<svg width="36" height="65" viewBox="0 0 36 65" fill="none" xmlns="http://www.w3.org/2000/svg">
<g clip-path="url(#clip0_4_1912)">
<path d="M35.93 7.62821V57.3718C35.93 57.5721 35.849 57.7638 35.7036 57.8983C35.466 58.1243 35.2423 58.4047 35.041 58.7338C34.4288 59.7553 34.247 60.9026 34.2191 61.1029C34.0737 64.1216 23.9785 64.9285 17.9985 64.9285C12.013 64.9285 1.8982 64.1187 1.77799 61.0972C1.75562 60.9169 1.57949 59.7638 0.956055 58.7309C0.760358 58.4047 0.539499 58.1243 0.29907 57.9011C0.153695 57.7638 0.0698242 57.5721 0.0698242 57.3718V7.63107C0.0698242 7.52806 0.0921897 7.43364 0.128534 7.34494C0.131329 7.33636 0.136921 7.33063 0.139716 7.32491C0.15649 7.28771 0.17606 7.25338 0.198426 7.2219C0.206813 7.2076 0.2152 7.19901 0.223587 7.18757C0.243157 7.16182 0.265522 7.13607 0.290683 7.11318C0.293479 7.11031 0.296274 7.10459 0.29907 7.10173C0.542294 6.87569 0.763153 6.59814 0.956055 6.27482C1.63261 5.15319 1.78078 3.8885 1.78078 3.87419C1.78358 3.86275 1.78917 3.84844 1.78917 3.837C2.05476 0.869834 12.0549 0.0715332 17.9985 0.0715332C23.9449 0.0715332 33.9423 0.869834 34.2079 3.837C34.2107 3.84844 34.2163 3.85989 34.2163 3.87419C34.2191 3.88564 34.3756 5.16177 35.0438 6.27196C35.2339 6.5867 35.4492 6.86138 35.684 7.08456L35.6952 7.09601C35.698 7.09887 35.7008 7.10173 35.7036 7.10459L35.7064 7.10745C35.7371 7.13893 35.7651 7.1704 35.793 7.2076C35.7986 7.21332 35.8014 7.22191 35.807 7.23049C35.8266 7.26196 35.8462 7.29344 35.8629 7.32777C35.8657 7.33636 35.8713 7.34494 35.8741 7.35639C35.8881 7.39072 35.8993 7.42792 35.9077 7.46512C35.9105 7.4737 35.9133 7.48228 35.9161 7.49087C35.9161 7.49659 35.9189 7.50517 35.9217 7.5109C35.9272 7.55095 35.93 7.58815 35.93 7.62821ZM34.535 56.9741L34.5322 9.38218C34.5238 9.3879 34.5154 9.39077 34.507 9.39649C34.3896 9.45658 34.2582 9.51952 34.1212 9.58247C34.0457 9.61681 33.9507 9.65687 33.8473 9.69692C33.7047 9.75701 33.5453 9.81424 33.3748 9.87432C33.3664 9.87718 33.358 9.88005 33.3496 9.88291C32.4578 10.2005 31.3954 10.4609 30.2492 10.6726C29.897 10.7384 29.5363 10.7985 29.1673 10.8557C28.6417 10.9416 28.0881 11.0217 27.4983 11.0932L27.1292 11.1362C26.8888 11.1676 26.6372 11.1962 26.38 11.222C26.2905 11.2306 26.2011 11.242 26.1088 11.2477C26.0054 11.2592 25.9047 11.2706 25.8013 11.2792C25.5105 11.3078 25.2086 11.3364 24.9067 11.3593L24.6467 11.3794C24.4286 11.3965 24.2077 11.4137 23.9869 11.4309C23.8415 11.4423 23.6766 11.4509 23.5116 11.4623C23.3634 11.4709 23.2041 11.4824 23.0391 11.491C22.726 11.511 22.3989 11.5282 22.0718 11.5425C21.7587 11.5568 21.4456 11.5682 21.1241 11.5797C20.6796 11.5968 20.2295 11.6083 19.7738 11.6169C19.5417 11.6226 19.3069 11.6254 19.0693 11.6283H19.0022C18.6695 11.6312 18.334 11.634 17.9985 11.634C17.4254 11.634 6.80742 11.6054 2.18895 9.70551C2.18616 9.70551 2.18616 9.70551 2.18616 9.70551C1.92616 9.59964 1.68573 9.48805 1.46767 9.36788V57.017C1.47326 57.017 1.8982 57.9097 6.29022 58.7023C9.46332 59.2746 13.6205 59.5893 17.9985 59.5893C20.7243 59.5893 23.4333 59.4634 25.846 59.223C25.9047 59.2173 25.9606 59.2116 26.0165 59.2059C26.1619 59.1916 26.3045 59.1801 26.4443 59.1601C26.4722 59.1601 26.5002 59.1544 26.5282 59.1515C30.5931 58.7052 32.7234 58.0642 33.7382 57.5807C33.741 57.5778 33.741 57.5778 33.7438 57.5778C33.7885 57.5549 33.8333 57.5349 33.8752 57.512C33.8808 57.5091 33.8864 57.5063 33.892 57.5034C33.9283 57.4834 33.9647 57.4662 33.9954 57.449C34.0066 57.4433 34.015 57.4376 34.0234 57.4319C34.0513 57.4176 34.0793 57.4004 34.1045 57.3861C34.1156 57.3775 34.1268 57.3718 34.1352 57.3661C34.1576 57.3518 34.1799 57.3375 34.1995 57.326C34.2107 57.3174 34.2219 57.3088 34.2331 57.3003C34.2498 57.2917 34.2666 57.2802 34.2806 57.2688C34.2918 57.2602 34.3029 57.2516 34.3141 57.243C34.3253 57.2344 34.3393 57.223 34.3505 57.2144C34.3617 57.2058 34.37 57.1973 34.3812 57.1887C34.3896 57.1801 34.4008 57.1715 34.4092 57.1658L34.4343 57.14C34.4427 57.1314 34.4483 57.1257 34.4539 57.1171C34.4623 57.1086 34.4707 57.1 34.4763 57.0914C34.4819 57.0857 34.4875 57.0799 34.4903 57.0742C34.4959 57.0685 34.5014 57.0599 34.507 57.0513C34.5098 57.0456 34.5154 57.0399 34.5182 57.037C34.521 57.0284 34.5238 57.0227 34.5266 57.017C34.5294 57.0113 34.5322 57.0055 34.5322 57.0027C34.5322 56.9941 34.535 56.9827 34.535 56.9741ZM34.3924 7.77413C34.1995 7.54809 34.0206 7.2963 33.8528 7.02448C33.5481 6.51517 33.3301 5.98583 33.1735 5.51657C33.1623 5.5223 33.1483 5.53088 33.1344 5.53946C33.0589 5.58811 32.9778 5.63389 32.8939 5.68253C32.8688 5.69684 32.8436 5.70828 32.8184 5.72259C32.715 5.77981 32.6088 5.83418 32.4941 5.88568C32.4802 5.8914 32.4634 5.89999 32.4494 5.90571C32.346 5.95149 32.2369 6.00013 32.1251 6.04591C32.0916 6.05736 32.058 6.07167 32.0245 6.08597C31.8931 6.13748 31.7617 6.18612 31.6191 6.23476C30.8531 6.50372 29.9333 6.73835 28.8905 6.94436C28.2503 7.07312 27.5654 7.18757 26.8385 7.28771C26.7937 7.2963 26.7462 7.30202 26.6987 7.30774C25.9187 7.41647 25.0912 7.50517 24.2273 7.58243C23.2293 7.67113 22.1837 7.7398 21.1017 7.78272C20.0953 7.82278 19.0581 7.84567 17.9985 7.84567C12.3624 7.84567 7.2715 7.2448 4.38077 6.23476C4.23819 6.18612 4.10399 6.13748 3.97539 6.08597C3.94184 6.07167 3.9083 6.05736 3.87475 6.04591C3.76292 6.00013 3.65389 5.95149 3.55045 5.90571C3.53647 5.89999 3.5197 5.8914 3.50572 5.88568C3.39109 5.83418 3.28486 5.77981 3.18142 5.72259C3.15626 5.71114 3.1311 5.69684 3.10593 5.68253C3.02206 5.63675 2.94379 5.58811 2.8683 5.54233C2.85432 5.53374 2.83755 5.52516 2.82637 5.51657C2.6726 5.98583 2.45454 6.5123 2.14702 7.02161C1.98207 7.2963 1.80035 7.55095 1.60465 7.77986C1.92895 8.06599 2.98572 8.72122 6.29301 9.31637C9.46332 9.88863 13.6233 10.2034 17.9985 10.2034C19.0553 10.2034 20.0953 10.1833 21.1129 10.149C21.3422 10.1404 21.563 10.1318 21.7839 10.1204C21.8957 10.1175 22.0075 10.1118 22.1166 10.1061C22.4017 10.0946 22.6841 10.0803 22.9609 10.0603C23.1202 10.0517 23.274 10.046 23.425 10.0346C23.4837 10.0317 23.5368 10.026 23.5927 10.0231C23.6626 10.0202 23.7325 10.0145 23.8052 10.0088C23.8303 10.0059 23.8555 10.0059 23.8806 10.0031C24.1127 9.98878 24.328 9.97161 24.5404 9.95444L24.7781 9.93441C24.7864 9.93441 24.7976 9.93441 24.8088 9.93155C25.0996 9.91152 25.3903 9.88291 25.6727 9.85429C25.8684 9.83713 26.0529 9.8171 26.2374 9.79707C26.4862 9.77132 26.7267 9.74843 26.9643 9.71695L27.2998 9.67689C27.3473 9.67117 27.3948 9.66545 27.4423 9.65973C27.6073 9.63684 27.7694 9.61681 27.9288 9.59678C28.035 9.57961 28.1385 9.5653 28.2419 9.551C28.3398 9.53669 28.4376 9.52238 28.5327 9.50808C28.6724 9.48805 28.8094 9.46516 28.9464 9.44513C29.0135 9.43368 29.0806 9.42224 29.1449 9.41366C29.2456 9.39649 29.3434 9.37932 29.4413 9.36215C29.5587 9.34212 29.6789 9.31923 29.7935 9.2992L29.8494 9.29062C29.978 9.26487 30.1094 9.24198 30.2324 9.21623C30.2632 9.2105 30.2967 9.20478 30.3275 9.1962C30.3778 9.18761 30.4225 9.17903 30.4701 9.16758C30.5428 9.15328 30.6154 9.13897 30.6881 9.1218C30.7496 9.11036 30.8083 9.09605 30.8671 9.08461C30.9286 9.0703 30.9817 9.05886 31.0376 9.04741C31.0683 9.03883 31.1019 9.0331 31.1326 9.02452C31.1858 9.01307 31.2361 8.99877 31.2864 8.98732C31.524 8.93296 31.7393 8.87859 31.9434 8.82137C32.0412 8.79562 32.1279 8.76986 32.2118 8.74411C32.3236 8.7155 32.427 8.68403 32.5249 8.65255C32.5864 8.63252 32.6451 8.61536 32.701 8.59533C32.7234 8.5896 32.7458 8.58102 32.7653 8.5753C32.8184 8.55813 32.8688 8.54096 32.9191 8.52093C32.9862 8.49804 33.0477 8.47515 33.112 8.45226C33.1204 8.4494 33.1316 8.44654 33.1399 8.44082C33.1651 8.43223 33.1875 8.42365 33.2098 8.41506C33.2741 8.38931 33.3356 8.36642 33.3944 8.34067C33.4111 8.33495 33.4279 8.32636 33.4419 8.32064C33.509 8.29203 33.5733 8.26628 33.632 8.23766C33.6348 8.23766 33.6348 8.2348 33.6376 8.2348C34.0457 8.04596 34.2694 7.88573 34.3924 7.77413ZM33.235 59.3089C33.221 59.3146 33.2042 59.3203 33.1903 59.3232C33.0141 59.3833 32.8324 59.4434 32.6395 59.5006C32.6283 59.5035 32.6144 59.5063 32.6032 59.5092C32.4047 59.5693 32.1978 59.6265 31.9825 59.6809C31.9741 59.6837 31.9658 59.6866 31.9574 59.6894C31.7421 59.7438 31.5185 59.7953 31.2864 59.8468C31.2612 59.8525 31.2361 59.8611 31.2081 59.8668C30.9845 59.9155 30.7524 59.9641 30.512 60.0099C30.4757 60.0185 30.4365 60.0242 30.4002 60.0328C30.1625 60.0786 29.9165 60.1215 29.6649 60.1644C29.6202 60.173 29.5755 60.1787 29.5307 60.1873C29.2763 60.2302 29.0163 60.2703 28.7479 60.3103C28.7004 60.3161 28.6557 60.3218 28.6081 60.3304C28.3342 60.3704 28.0518 60.4076 27.7611 60.4448C27.7219 60.4505 27.6828 60.4563 27.6436 60.4591C27.3529 60.4963 27.0565 60.5307 26.749 60.565C26.7322 60.5679 26.7155 60.5707 26.6987 60.5707C26.6903 60.5736 26.6819 60.5736 26.6763 60.5736C26.5086 60.5965 26.3325 60.6136 26.1507 60.6308C23.6542 60.8855 20.8334 61.0199 17.9985 61.0199H17.7889C17.7469 61.0199 17.6966 61.0199 17.6435 61.0171H17.5848C17.5233 61.0171 17.4618 61.0171 17.3891 61.0142C17.3863 61.0142 17.3835 61.0142 17.3835 61.0142C17.3136 61.0142 17.2381 61.0142 17.157 61.0114H17.076C16.9921 61.0085 16.9082 61.0085 16.816 61.0056H16.7964C16.7069 61.0056 16.6119 61.0028 16.5168 60.9999C16.4777 60.9999 16.4413 60.9999 16.4022 60.997C16.3016 60.9942 16.2009 60.9942 16.0919 60.9913C16.0779 60.9885 16.0639 60.9885 16.0499 60.9885C15.9437 60.9856 15.8319 60.9827 15.7173 60.9799C15.6753 60.977 15.6334 60.977 15.5887 60.9742C15.4824 60.9713 15.3734 60.9684 15.2588 60.9656C15.2224 60.9627 15.1861 60.9627 15.1497 60.9599C15.0351 60.957 14.9177 60.9513 14.8003 60.9484C14.7499 60.9455 14.7024 60.9427 14.6549 60.9427C14.5347 60.937 14.4117 60.9312 14.2887 60.9255C14.2439 60.9255 14.202 60.9227 14.1573 60.9198C14.0315 60.9141 13.9057 60.9084 13.7771 60.9026L13.6177 60.894C13.4891 60.8883 13.3605 60.8797 13.2291 60.874C13.176 60.8712 13.1229 60.8683 13.0697 60.8654C12.9383 60.8568 12.807 60.8483 12.6728 60.8397C12.614 60.8368 12.5553 60.834 12.4966 60.8282C12.3568 60.8196 12.2143 60.8111 12.0717 60.8025C12.027 60.7996 11.9794 60.7939 11.9347 60.791C11.7921 60.7825 11.6495 60.771 11.5042 60.7596C11.4427 60.7567 11.3812 60.751 11.3196 60.7453C11.1743 60.7367 11.0289 60.7224 10.8835 60.7109C10.8332 60.7081 10.7829 60.7023 10.7326 60.6995C10.5872 60.6852 10.439 60.6737 10.2908 60.6594C10.2293 60.6537 10.1678 60.648 10.1063 60.6423C9.95256 60.6279 9.7988 60.6136 9.64503 60.5965C9.6031 60.5936 9.56116 60.5907 9.52203 60.585C9.36547 60.5679 9.20891 60.5536 9.05235 60.5364C8.99364 60.5278 8.93773 60.5221 8.87902 60.5164C8.72246 60.4992 8.5659 60.4792 8.40934 60.462C8.36741 60.4563 8.32547 60.4505 8.28354 60.4448C8.12978 60.4277 7.97601 60.4076 7.82225 60.3847C7.76354 60.379 7.70763 60.3704 7.64892 60.3618C7.48956 60.3418 7.32741 60.3189 7.16806 60.296C7.13731 60.2903 7.10656 60.2846 7.0786 60.2817C6.91924 60.2588 6.76269 60.2331 6.60613 60.2073C6.55301 60.1987 6.49989 60.1902 6.44677 60.1816C6.28463 60.1558 6.12527 60.1272 5.96592 60.0986C5.94355 60.0957 5.92119 60.0929 5.89882 60.0872C5.74226 60.0585 5.5857 60.0299 5.43194 59.9985C5.38442 59.9899 5.33409 59.9813 5.28657 59.9698C5.12721 59.9384 4.97065 59.9069 4.81689 59.8726C4.80291 59.8697 4.78614 59.8668 4.76937 59.8611C4.6184 59.8296 4.47023 59.7924 4.32206 59.7581C4.28012 59.7467 4.23539 59.7381 4.19346 59.7266C4.03969 59.6894 3.88873 59.6494 3.74055 59.6093C3.73496 59.6093 3.72658 59.6065 3.71819 59.6036C3.57561 59.5635 3.43583 59.5235 3.29604 59.4806C3.2597 59.4691 3.22056 59.4577 3.18142 59.4462C3.04163 59.4033 2.90185 59.3575 2.76766 59.3117C2.76766 59.3117 2.76766 59.3117 2.76486 59.3117C3.08916 60.2216 3.17024 60.9541 3.17024 60.9656C3.17303 60.9913 3.17583 61.0171 3.17583 61.0428C3.41346 61.8898 8.71407 63.4978 17.9985 63.4978C27.2858 63.4978 32.5864 61.8898 32.8268 61.0285C32.8268 60.9999 32.8268 60.9827 32.8296 60.9541C32.8436 60.8454 32.9359 60.1558 33.235 59.3089ZM32.8184 3.95717C32.8184 3.95717 32.8184 3.95431 32.8184 3.95717C32.5193 3.08734 27.2243 1.50218 17.9985 1.50218C8.75042 1.50218 3.4526 3.09592 3.17862 3.96003C3.1954 3.99151 3.324 4.21182 3.94184 4.51798C3.94464 4.51798 3.94464 4.51798 3.94744 4.52084C3.99496 4.54373 4.04528 4.56663 4.0984 4.58952C4.10958 4.59524 4.11797 4.60096 4.12915 4.60668C4.17668 4.62671 4.227 4.6496 4.27733 4.66963C4.2969 4.67822 4.31647 4.6868 4.33603 4.69538C4.38915 4.71541 4.44507 4.7383 4.50098 4.76119C4.52614 4.76978 4.54571 4.77836 4.57087 4.78694C4.59603 4.79553 4.62399 4.80697 4.65195 4.81556C7.99279 4.06018 12.8377 3.62526 17.9985 3.62526C23.1622 3.62526 28.0043 4.06018 31.3479 4.81556C31.3731 4.80697 31.3982 4.79839 31.4234 4.78981C31.4514 4.77836 31.4765 4.76978 31.5017 4.75833C31.552 4.7383 31.6023 4.71827 31.6498 4.70111C31.6806 4.6868 31.7058 4.67535 31.7337 4.66391C31.7757 4.64674 31.8148 4.62957 31.8511 4.61241C31.8791 4.60096 31.9043 4.58952 31.9294 4.57807C31.9658 4.5609 31.9993 4.5466 32.0301 4.52943C32.0552 4.51798 32.0776 4.50654 32.1 4.49509C32.1307 4.48079 32.1587 4.46362 32.1866 4.44931C32.2062 4.43787 32.2258 4.42642 32.2453 4.41784C32.2733 4.40353 32.2957 4.38922 32.3208 4.37492C32.3376 4.36347 32.3544 4.35489 32.3711 4.34344C32.3935 4.32914 32.4159 4.31769 32.4354 4.30339C32.4494 4.2948 32.4634 4.28336 32.4774 4.27477C32.4969 4.26333 32.5137 4.24902 32.5305 4.23758C32.5445 4.22899 32.5556 4.22041 32.5668 4.21182C32.5836 4.20038 32.5976 4.18607 32.6144 4.17463C32.6227 4.16891 32.6311 4.16032 32.6395 4.1546C32.6591 4.13743 32.6787 4.12026 32.6954 4.1031C32.701 4.10023 32.7038 4.09737 32.7066 4.09451L32.7569 4.04301C32.7625 4.03442 32.7681 4.0287 32.7737 4.02012C32.7793 4.0144 32.7821 4.01153 32.7849 4.00581C32.7905 4.00009 32.7933 3.99437 32.7989 3.98864C32.8017 3.98578 32.8045 3.98006 32.8073 3.9772C32.8101 3.97434 32.8101 3.96861 32.8129 3.96575C32.8156 3.96289 32.8156 3.96003 32.8184 3.95717ZM27.3054 5.77123C27.5262 5.73689 27.7387 5.70256 27.9484 5.66536C25.0856 5.27336 21.6273 5.05591 17.9985 5.05591C14.3725 5.05591 10.9143 5.27336 8.0487 5.66536C8.25838 5.70256 8.47364 5.73689 8.6945 5.77123C8.75042 5.77981 8.80913 5.7884 8.86784 5.79698C9.06633 5.82846 9.26482 5.85707 9.46891 5.88282C9.51364 5.88854 9.55837 5.89713 9.6059 5.90285C9.84632 5.93432 10.0923 5.9658 10.3412 5.99441C10.3999 6.00299 10.4586 6.00872 10.5173 6.01444C10.7298 6.04019 10.9422 6.06308 11.1603 6.08311C11.2162 6.08883 11.2721 6.09456 11.328 6.10028C11.588 6.12603 11.8536 6.15178 12.1192 6.17467C12.1751 6.17753 12.231 6.18326 12.287 6.18898C12.5134 6.20615 12.7427 6.22331 12.9719 6.24048C13.039 6.24334 13.1033 6.24907 13.1676 6.25479C13.4444 6.27196 13.7239 6.28912 14.0035 6.30629C14.051 6.30915 14.0986 6.30915 14.1461 6.31201C14.3893 6.32632 14.6353 6.33777 14.8813 6.34921C14.954 6.35207 15.0295 6.35493 15.1022 6.35779C15.3902 6.36924 15.6809 6.37782 15.9717 6.38641C16.0024 6.38641 16.0332 6.38927 16.0639 6.38927C16.3295 6.39499 16.5979 6.40071 16.8663 6.40357C16.9446 6.40644 17.0228 6.40644 17.1011 6.4093C17.4003 6.41216 17.6994 6.41502 17.9985 6.41502C18.3005 6.41502 18.5996 6.41216 18.8987 6.4093C18.977 6.40644 19.0553 6.40644 19.1336 6.40357C19.402 6.40071 19.6703 6.39499 19.9359 6.38927C19.9667 6.38927 19.9974 6.38641 20.0254 6.38641C20.3189 6.37782 20.6097 6.36924 20.8977 6.35779C20.9703 6.35493 21.043 6.35207 21.1185 6.34921C21.3645 6.33777 21.6078 6.32632 21.851 6.31201C21.8985 6.30915 21.9488 6.30915 21.9964 6.30629C22.2759 6.28912 22.5555 6.27196 22.8295 6.25479C22.8966 6.24907 22.9609 6.24334 23.028 6.24048C23.2572 6.22331 23.4865 6.20615 23.7101 6.18898C23.766 6.18326 23.8247 6.17753 23.8806 6.17467C24.1462 6.15178 24.4118 6.12603 24.6718 6.10028C24.7277 6.09456 24.7837 6.08883 24.8396 6.08311C25.0548 6.06308 25.2701 6.04019 25.4798 6.01444C25.5385 6.00872 25.6 6.00299 25.6587 5.99441C25.9075 5.9658 26.1535 5.93432 26.394 5.90285C26.4415 5.89713 26.4862 5.88854 26.531 5.88282C26.735 5.85707 26.9335 5.82846 27.1292 5.79698C27.1879 5.7884 27.2466 5.77981 27.3054 5.77123Z" fill="#111111"/>
<path d="M33.8527 7.0245C34.0204 7.29633 34.1993 7.54812 34.3922 7.77416C34.2692 7.88575 34.0456 8.04599 33.6374 8.23483C33.6346 8.23483 33.6346 8.23769 33.6318 8.23769C33.5731 8.26631 33.5088 8.29206 33.4417 8.32067C33.4277 8.32639 33.411 8.33498 33.3942 8.3407C33.3355 8.36645 33.274 8.38934 33.2097 8.41509C33.1873 8.42368 33.1649 8.43226 33.1398 8.44084C33.1314 8.44657 33.1202 8.44943 33.1118 8.45229C33.0475 8.47518 32.986 8.49807 32.9189 8.52096C32.8686 8.54099 32.8183 8.55816 32.7652 8.57532C32.7456 8.58105 32.7232 8.58963 32.7009 8.59535C32.6449 8.61538 32.5862 8.63255 32.5247 8.65258C32.4269 8.68405 32.3234 8.71553 32.2116 8.74414C32.1277 8.76989 32.0411 8.79564 31.9432 8.8214C31.7391 8.87862 31.5239 8.93299 31.2862 8.98735C31.2359 8.9988 31.1856 9.0131 31.1325 9.02455C31.1017 9.03313 31.0682 9.03886 31.0374 9.04744C30.9815 9.05888 30.9284 9.07033 30.8669 9.08464C30.8082 9.09608 30.7495 9.11039 30.688 9.12183C30.6153 9.139 30.5426 9.15331 30.4699 9.16761C30.4224 9.17906 30.3777 9.18764 30.3273 9.19623C30.2966 9.20481 30.263 9.21053 30.2323 9.21625C30.1093 9.24201 29.9779 9.2649 29.8493 9.29065L29.7934 9.29923C29.6787 9.31926 29.5585 9.34215 29.4411 9.36218C29.3432 9.37935 29.2454 9.39652 29.1448 9.41368C29.0805 9.42227 29.0134 9.43371 28.9463 9.44516C28.8093 9.46519 28.6723 9.48808 28.5325 9.50811C28.4374 9.52241 28.3396 9.53672 28.2417 9.55103C28.1383 9.56533 28.0349 9.57964 27.9286 9.59681C27.7693 9.61684 27.6071 9.63686 27.4422 9.65976C27.3947 9.66548 27.3471 9.6712 27.2996 9.67692L26.9641 9.71698C26.7265 9.74846 26.4861 9.77135 26.2372 9.7971C26.0527 9.81713 25.8682 9.83716 25.6725 9.85432C25.3902 9.88294 25.0994 9.91155 24.8087 9.93158C24.7975 9.93444 24.7863 9.93444 24.7779 9.93444L24.5403 9.95447C24.3278 9.97164 24.1125 9.9888 23.8805 10.0031C23.8553 10.006 23.8302 10.006 23.805 10.0088C23.7323 10.0146 23.6624 10.0203 23.5925 10.0231C23.5366 10.026 23.4835 10.0317 23.4248 10.0346C23.2738 10.046 23.1201 10.0518 22.9607 10.0603C22.6839 10.0804 22.4016 10.0947 22.1164 10.1061C22.0074 10.1118 21.8956 10.1176 21.7837 10.1204C21.5629 10.1319 21.342 10.1405 21.1128 10.149C20.0951 10.1834 19.0551 10.2034 17.9984 10.2034C13.6231 10.2034 9.46315 9.88866 6.29285 9.3164C2.98556 8.72125 1.92879 8.06601 1.60449 7.77989C1.80019 7.55098 1.98191 7.29633 2.14685 7.02164C2.45438 6.51233 2.67244 5.98585 2.82621 5.5166C2.83739 5.52519 2.85416 5.53377 2.86814 5.54235C2.94362 5.58813 3.0219 5.63678 3.10577 5.68256C3.13093 5.69686 3.1561 5.71117 3.18126 5.72261C3.2847 5.77984 3.39093 5.8342 3.50556 5.88571C3.51953 5.89143 3.53631 5.90001 3.55029 5.90574C3.65373 5.95152 3.76276 6.00016 3.87459 6.04594C3.90813 6.05739 3.94168 6.07169 3.97523 6.086C4.10383 6.1375 4.23802 6.18614 4.3806 6.23479C7.27134 7.24482 12.3623 7.8457 17.9984 7.8457C19.0579 7.8457 20.0951 7.8228 21.1016 7.78275C22.1835 7.73983 23.2291 7.67116 24.2272 7.58246C25.091 7.5052 25.9185 7.4165 26.6985 7.30777C26.7461 7.30205 26.7936 7.29633 26.8383 7.28774C27.5652 7.1876 28.2501 7.07315 28.8903 6.94439C29.9331 6.73837 30.8529 6.50375 31.6189 6.23479C31.7615 6.18614 31.8929 6.1375 32.0243 6.086C32.0579 6.07169 32.0914 6.05739 32.125 6.04594C32.2368 6.00016 32.3458 5.95152 32.4493 5.90574C32.4632 5.90001 32.48 5.89143 32.494 5.88571C32.6086 5.8342 32.7148 5.77984 32.8183 5.72261C32.8434 5.70831 32.8686 5.69686 32.8938 5.68256C32.9776 5.63391 33.0587 5.58813 33.1342 5.53949C33.1482 5.53091 33.1622 5.52232 33.1733 5.5166C33.3299 5.98585 33.548 6.51519 33.8527 7.0245Z" fill="#B5B5B6"/>
<path d="M33.1905 59.3231C33.2045 59.3203 33.2213 59.3146 33.2353 59.3088C32.9361 60.1558 32.8439 60.8454 32.8299 60.9541C32.8271 60.9827 32.8271 60.9999 32.8271 61.0285C32.5867 61.8897 27.2861 63.4978 17.9988 63.4978C8.71435 63.4978 3.41373 61.8897 3.1761 61.0428C3.1761 61.017 3.17331 60.9913 3.17051 60.9655C3.17051 60.9541 3.08944 60.2216 2.76514 59.3117C2.76793 59.3117 2.76793 59.3117 2.76793 59.3117C2.90212 59.3575 3.04191 59.4033 3.18169 59.4462C3.22083 59.4576 3.25997 59.4691 3.29632 59.4805C3.4361 59.5234 3.57588 59.5635 3.71846 59.6036C3.72685 59.6064 3.73524 59.6093 3.74083 59.6093C3.889 59.6493 4.03997 59.6894 4.19373 59.7266C4.23567 59.738 4.2804 59.7466 4.32233 59.7581C4.4705 59.7924 4.61867 59.8296 4.76964 59.8611C4.78641 59.8668 4.80319 59.8697 4.81717 59.8725C4.97093 59.9068 5.12749 59.9383 5.28684 59.9698C5.33437 59.9812 5.38469 59.9898 5.43222 59.9984C5.58598 60.0299 5.74254 60.0585 5.8991 60.0871C5.92146 60.0928 5.94383 60.0957 5.96619 60.0986C6.12555 60.1272 6.2849 60.1558 6.44705 60.1815C6.50017 60.1901 6.55329 60.1987 6.6064 60.2073C6.76296 60.233 6.91952 60.2588 7.07887 60.2817C7.10683 60.2845 7.13758 60.2903 7.16834 60.296C7.32769 60.3189 7.48984 60.3418 7.64919 60.3618C7.7079 60.3704 7.76382 60.379 7.82252 60.3847C7.97629 60.4076 8.13005 60.4276 8.28381 60.4448C8.32575 60.4505 8.36768 60.4562 8.40962 60.4619C8.56618 60.4791 8.72273 60.4991 8.87929 60.5163C8.938 60.522 8.99392 60.5278 9.05263 60.5363C9.20918 60.5535 9.36574 60.5678 9.5223 60.585C9.56144 60.5907 9.60337 60.5936 9.64531 60.5964C9.79907 60.6136 9.95283 60.6279 10.1066 60.6422C10.1681 60.6479 10.2296 60.6536 10.2911 60.6594C10.4393 60.6737 10.5875 60.6851 10.7328 60.6994C10.7832 60.7023 10.8335 60.708 10.8838 60.7109C11.0292 60.7223 11.1745 60.7366 11.3199 60.7452C11.3814 60.7509 11.4429 60.7567 11.5044 60.7595C11.6498 60.771 11.7924 60.7824 11.935 60.791C11.9797 60.7939 12.0272 60.7996 12.072 60.8024C12.2145 60.811 12.3571 60.8196 12.4969 60.8282C12.5556 60.8339 12.6143 60.8368 12.673 60.8396C12.8072 60.8482 12.9386 60.8568 13.07 60.8654C13.1231 60.8682 13.1763 60.8711 13.2294 60.874C13.3608 60.8797 13.4894 60.8883 13.618 60.894L13.7773 60.9026C13.9059 60.9083 14.0317 60.914 14.1575 60.9197C14.2023 60.9226 14.2442 60.9255 14.2889 60.9255C14.4119 60.9312 14.535 60.9369 14.6552 60.9426C14.7027 60.9426 14.7502 60.9455 14.8005 60.9484C14.918 60.9512 15.0354 60.9569 15.15 60.9598C15.1864 60.9627 15.2227 60.9627 15.259 60.9655C15.3737 60.9684 15.4827 60.9713 15.5889 60.9741C15.6337 60.977 15.6756 60.977 15.7175 60.9798C15.8322 60.9827 15.944 60.9856 16.0502 60.9884C16.0642 60.9884 16.0782 60.9884 16.0922 60.9913C16.2012 60.9941 16.3018 60.9941 16.4025 60.997C16.4416 60.9999 16.478 60.9999 16.5171 60.9999C16.6121 61.0027 16.7072 61.0056 16.7967 61.0056H16.8162C16.9085 61.0085 16.9924 61.0084 17.0762 61.0113H17.1573C17.2384 61.0142 17.3139 61.0142 17.3838 61.0142C17.3838 61.0142 17.3866 61.0142 17.3893 61.0142C17.462 61.017 17.5235 61.017 17.585 61.017H17.6438C17.6969 61.0199 17.7472 61.0199 17.7891 61.0199H17.9988C20.8336 61.0199 23.6545 60.8854 26.151 60.6308C26.3327 60.6136 26.5089 60.5964 26.6766 60.5735C26.6822 60.5735 26.6906 60.5735 26.699 60.5707C26.7157 60.5707 26.7325 60.5678 26.7493 60.5649C27.0568 60.5306 27.3532 60.4963 27.6439 60.4591C27.683 60.4562 27.7222 60.4505 27.7613 60.4448C28.0521 60.4076 28.3344 60.3704 28.6084 60.3303C28.6559 60.3217 28.7007 60.316 28.7482 60.3103C29.0166 60.2702 29.2766 60.2302 29.531 60.1873C29.5757 60.1787 29.6205 60.173 29.6652 60.1644C29.9168 60.1214 30.1628 60.0785 30.4004 60.0327C30.4368 60.0242 30.4759 60.0184 30.5123 60.0099C30.7527 59.9641 30.9847 59.9154 31.2084 59.8668C31.2364 59.8611 31.2615 59.8525 31.2867 59.8468C31.5187 59.7953 31.7424 59.7438 31.9576 59.6894C31.966 59.6865 31.9744 59.6837 31.9828 59.6808C32.1981 59.6264 32.405 59.5692 32.6034 59.5091C32.6146 59.5063 32.6286 59.5034 32.6398 59.5005C32.8327 59.4433 33.0144 59.3832 33.1905 59.3231Z" fill="#B5B5B6"/>
<path d="M32.8212 3.95433C32.8184 3.95433 32.8184 3.95719 32.8212 3.95433C32.8156 3.96005 32.8156 3.96291 32.8128 3.96577C32.81 3.96863 32.81 3.97436 32.8072 3.97722C32.8044 3.98008 32.8016 3.9858 32.7988 3.98866C32.7932 3.99438 32.7905 4.00011 32.7849 4.00583C32.7821 4.01155 32.7793 4.01441 32.7737 4.02014C32.7681 4.02872 32.7625 4.03444 32.7569 4.04303L32.7066 4.09453C32.7038 4.09739 32.701 4.10025 32.6954 4.10311C32.6786 4.12028 32.6591 4.13745 32.6395 4.15462C32.6311 4.16034 32.6227 4.16892 32.6143 4.17465C32.5976 4.18609 32.5836 4.2004 32.5668 4.21184C32.5556 4.22043 32.5444 4.22901 32.5305 4.23759C32.5137 4.24904 32.4969 4.26335 32.4773 4.27479C32.4634 4.28337 32.4494 4.29482 32.4354 4.3034C32.4158 4.31771 32.3935 4.32916 32.3711 4.34346C32.3543 4.35491 32.3376 4.36349 32.3208 4.37494C32.2956 4.38924 32.2732 4.40355 32.2453 4.41786C32.2257 4.42644 32.2062 4.43788 32.1866 4.44933C32.1586 4.46364 32.1307 4.4808 32.0999 4.49511C32.0776 4.50656 32.0552 4.518 32.03 4.52945C31.9993 4.54661 31.9657 4.56092 31.9294 4.57809C31.9042 4.58953 31.8791 4.60098 31.8511 4.61242C31.8148 4.62959 31.7756 4.64676 31.7337 4.66393C31.7057 4.67537 31.6806 4.68682 31.6498 4.70112C31.6023 4.71829 31.552 4.73832 31.5016 4.75835C31.4765 4.76979 31.4513 4.77838 31.4234 4.78982C31.3982 4.79841 31.373 4.80699 31.3479 4.81558C28.0042 4.06019 23.1621 3.62528 17.9985 3.62528C12.8377 3.62528 7.99275 4.06019 4.65191 4.81558C4.62396 4.80699 4.596 4.79555 4.57084 4.78696C4.54568 4.77838 4.52611 4.76979 4.50095 4.76121C4.44503 4.73832 4.38912 4.71543 4.336 4.6954C4.31643 4.68682 4.29686 4.67823 4.27729 4.66965C4.22697 4.64962 4.17665 4.62673 4.12912 4.6067C4.11794 4.60098 4.10955 4.59526 4.09837 4.58953C4.04525 4.56664 3.99493 4.54375 3.9474 4.52086C3.94461 4.518 3.94461 4.518 3.94181 4.518C3.32396 4.21184 3.19536 3.99152 3.17859 3.96005C3.45257 3.09594 8.75038 1.5022 17.9985 1.5022C27.2242 1.5022 32.5193 3.08735 32.8212 3.95433Z" fill="#595757"/>
<path d="M27.9485 5.66536C27.7388 5.70256 27.5263 5.7369 27.3055 5.77123C27.2468 5.77982 27.1881 5.7884 27.1294 5.79698C26.9337 5.82846 26.7352 5.85707 26.5311 5.88282C26.4864 5.88854 26.4416 5.89713 26.3941 5.90285C26.1537 5.93432 25.9076 5.9658 25.6588 5.99441C25.6001 6.003 25.5386 6.00872 25.4799 6.01444C25.2702 6.04019 25.055 6.06308 24.8397 6.08311C24.7838 6.08883 24.7279 6.09456 24.672 6.10028C24.412 6.12603 24.1464 6.15178 23.8808 6.17467C23.8249 6.17753 23.7662 6.18326 23.7102 6.18898C23.4866 6.20615 23.2573 6.22332 23.0281 6.24048C22.961 6.24334 22.8967 6.24907 22.8296 6.25479C22.5556 6.27196 22.2761 6.28913 21.9965 6.30629C21.949 6.30915 21.8986 6.30915 21.8511 6.31202C21.6079 6.32632 21.3647 6.33777 21.1186 6.34921C21.0432 6.35207 20.9705 6.35493 20.8978 6.3578C20.6098 6.36924 20.3191 6.37783 20.0255 6.38641C19.9976 6.38641 19.9668 6.38927 19.9361 6.38927C19.6705 6.39499 19.4021 6.40072 19.1337 6.40358C19.0554 6.40644 18.9771 6.40644 18.8989 6.4093C18.5997 6.41216 18.3006 6.41502 17.9987 6.41502C17.6995 6.41502 17.4004 6.41216 17.1012 6.4093C17.023 6.40644 16.9447 6.40644 16.8664 6.40358C16.598 6.40072 16.3296 6.39499 16.064 6.38927C16.0333 6.38927 16.0025 6.38641 15.9718 6.38641C15.681 6.37783 15.3903 6.36924 15.1023 6.3578C15.0296 6.35493 14.9542 6.35207 14.8815 6.34921C14.6355 6.33777 14.3894 6.32632 14.1462 6.31202C14.0987 6.30915 14.0512 6.30915 14.0036 6.30629C13.7241 6.28913 13.4445 6.27196 13.1677 6.25479C13.1034 6.24907 13.0391 6.24334 12.972 6.24048C12.7428 6.22332 12.5135 6.20615 12.2871 6.18898C12.2312 6.18326 12.1753 6.17753 12.1193 6.17467C11.8538 6.15178 11.5882 6.12603 11.3282 6.10028C11.2722 6.09456 11.2163 6.08883 11.1604 6.08311C10.9424 6.06308 10.7299 6.04019 10.5174 6.01444C10.4587 6.00872 10.4 6.003 10.3413 5.99441C10.0925 5.9658 9.84645 5.93432 9.60602 5.90285C9.5585 5.89713 9.51376 5.88854 9.46903 5.88282C9.26495 5.85707 9.06646 5.82846 8.86796 5.79698C8.80925 5.7884 8.75054 5.77982 8.69463 5.77123C8.47377 5.7369 8.2585 5.70256 8.04883 5.66536C10.9144 5.27337 14.3727 5.05591 17.9987 5.05591C21.6275 5.05591 25.0857 5.27337 27.9485 5.66536Z" fill="#898989"/>
<path class="color" d="M34.535 56.9741C34.535 56.9827 34.5322 56.9941 34.5322 57.0027C34.5322 57.0056 34.5294 57.0113 34.5266 57.017C34.5238 57.0227 34.521 57.0284 34.5182 57.037C34.5154 57.0399 34.5098 57.0456 34.507 57.0513C34.5014 57.0599 34.4958 57.0685 34.4903 57.0742C34.4875 57.08 34.4819 57.0857 34.4763 57.0914C34.4707 57.1 34.4623 57.1086 34.4539 57.1171C34.4483 57.1257 34.4427 57.1315 34.4343 57.14L34.4092 57.1658C34.4008 57.1715 34.3896 57.1801 34.3812 57.1887C34.37 57.1973 34.3617 57.2059 34.3505 57.2144C34.3393 57.223 34.3253 57.2345 34.3141 57.243C34.3029 57.2516 34.2918 57.2602 34.2806 57.2688C34.2666 57.2802 34.2498 57.2917 34.233 57.3003C34.2219 57.3089 34.2107 57.3174 34.1995 57.326C34.1799 57.3375 34.1576 57.3518 34.1352 57.3661C34.1268 57.3718 34.1156 57.3775 34.1044 57.3861C34.0793 57.4004 34.0513 57.4176 34.0234 57.4319C34.015 57.4376 34.0066 57.4433 33.9954 57.4491C33.9647 57.4662 33.9283 57.4834 33.892 57.5034C33.8864 57.5063 33.8808 57.5091 33.8752 57.512C33.8333 57.5349 33.7885 57.5549 33.7438 57.5778C33.741 57.5778 33.741 57.5778 33.7382 57.5807C32.7234 58.0642 30.5931 58.7052 26.5281 59.1515C26.5002 59.1544 26.4722 59.1601 26.4443 59.1601C25.4714 55.017 24.423 47.1713 27.9456 40.0324C33.3272 29.1251 34.4679 19.5942 30.2492 10.6726C31.3954 10.4609 32.4578 10.2005 33.3496 9.88293C33.358 9.88007 33.3664 9.87721 33.3748 9.87434C33.5453 9.81426 33.7047 9.75703 33.8472 9.69694C33.9507 9.65689 34.0457 9.61683 34.1212 9.58249C34.2582 9.51954 34.3896 9.4566 34.507 9.39651C34.5154 9.39079 34.5238 9.38792 34.5322 9.3822L34.535 56.9741Z" fill="#BA1414"/>
<path d="M27.9456 40.0323C24.423 47.1713 25.4714 55.0169 26.4443 59.1601C26.3045 59.1801 26.1619 59.1916 26.0166 59.2059C25.9606 59.2116 25.9047 59.2173 25.846 59.223C24.5265 55.263 22.6841 47.3372 25.6811 39.7433C29.9892 28.839 30.4813 19.5369 26.1088 11.2477C26.2011 11.242 26.2905 11.2306 26.38 11.222C26.6372 11.1962 26.8888 11.1676 27.1292 11.1361L27.4983 11.0932C28.0882 11.0217 28.6417 10.9416 29.1673 10.8557C29.5363 10.7985 29.897 10.7384 30.2492 10.6726C34.4679 19.5941 33.3273 29.1251 27.9456 40.0323Z" fill="white"/>
<path class="color" d="M25.8462 59.223C23.4336 59.4634 20.7246 59.5893 17.9988 59.5893C13.6207 59.5893 9.46355 59.2745 6.29045 58.7023C1.89843 57.9097 1.47349 57.017 1.4679 57.017V9.36786C1.68596 9.48803 1.92639 9.59962 2.18639 9.70549C2.18639 9.70549 2.18639 9.70549 2.18918 9.70549C6.80765 11.6054 17.4256 11.634 17.9988 11.634C18.3342 11.634 18.6697 11.6311 19.0024 11.6283H19.0695C19.3071 11.6254 19.542 11.6226 19.774 11.6168C20.2297 11.6083 20.6798 11.5968 21.1243 11.5796C21.4458 11.5682 21.759 11.5567 22.0721 11.5424C22.3992 11.5281 22.7263 11.511 23.0394 11.4909C23.2043 11.4824 23.3637 11.4709 23.5118 11.4623C23.6768 11.4509 23.8417 11.4423 23.9871 11.4309C24.208 11.4137 24.4288 11.3965 24.6469 11.3793L24.9069 11.3593C25.2088 11.3364 25.5108 11.3078 25.8015 11.2792C25.905 11.2706 26.0056 11.2592 26.109 11.2477C30.4815 19.5369 29.9894 28.839 25.6813 39.7433C22.6843 47.3372 24.5267 55.263 25.8462 59.223Z" fill="#BA1414"/>
<path d="M9.13367 46.5704C9.13367 46.1812 9.27066 45.8836 9.54184 45.6748C9.7571 45.506 10.0171 45.423 10.3246 45.423C10.8754 45.423 11.5016 45.6118 12.2061 45.9895C12.8128 46.3214 13.3579 46.7334 13.8388 47.2256C14.1519 47.5518 14.3057 47.8064 14.3057 47.9924C14.3057 48.1155 14.247 48.227 14.1268 48.3329C14.0429 48.4073 13.945 48.4474 13.8388 48.4474C13.6403 48.4474 13.4139 48.27 13.1594 47.9152C12.796 47.4144 12.399 47.0196 11.9685 46.722C11.3451 46.2871 10.8167 46.0696 10.3861 46.0696C10.21 46.0696 10.0786 46.1097 9.99474 46.1869C9.91087 46.2642 9.86614 46.3815 9.86614 46.5389C9.86614 46.8593 10.0926 47.3114 10.5455 47.898C11.0571 48.5647 11.7504 49.2714 12.6311 50.0125C13.7493 50.9596 14.848 51.6778 15.9328 52.1728C17.0538 52.6792 18.0127 52.9339 18.8067 52.9339C19.1869 52.9339 19.5112 52.8223 19.7768 52.5934C20.0788 52.3444 20.2269 52.0383 20.2269 51.6778C20.2269 51.0511 19.7517 50.2614 18.7983 49.3086C18.5104 49.0253 18.0882 48.6791 17.5403 48.2728C17.188 48.0067 16.9392 47.835 16.791 47.7578C16.6261 47.672 16.545 47.5689 16.545 47.4516C16.545 47.3229 16.6037 47.2599 16.7239 47.2599C16.9783 47.2599 17.5515 47.5861 18.4433 48.2356C19.1869 48.7764 19.7936 49.3716 20.2633 50.0211C20.7917 50.7536 21.0545 51.4431 21.0545 52.0927C21.0545 52.7708 20.7581 53.2973 20.1598 53.6692C19.7796 53.9067 19.3463 54.0269 18.857 54.0269C17.6325 54.0269 16.0865 53.4346 14.219 52.25C12.6311 51.24 11.3506 50.1756 10.3805 49.054C9.55022 48.0897 9.13367 47.2599 9.13367 46.5704Z" fill="white"/>
<path d="M14.5881 43.6003C14.5881 43.1254 14.8705 42.885 15.438 42.885C16.1929 42.885 17.149 43.2427 18.3064 43.9551C19.5589 44.7334 20.1879 45.4859 20.1879 46.2098C20.1879 46.5475 20.0341 46.7935 19.7294 46.9509C19.5756 47.031 19.3911 47.0739 19.1759 47.0739C18.449 47.0739 17.6606 46.8193 16.8107 46.3071C16.0223 45.8321 15.4101 45.2713 14.9739 44.6275C14.7139 44.2498 14.5881 43.9065 14.5881 43.6003ZM17.8032 44.5045C17.6885 44.6504 17.6019 44.722 17.5404 44.722C17.4956 44.722 17.3698 44.6304 17.1658 44.4444C16.5926 43.9208 16.1314 43.6604 15.7791 43.6604C15.7344 43.6604 15.6896 43.6747 15.6421 43.7033C15.5582 43.7491 15.5135 43.8235 15.5135 43.9208C15.5135 44.1068 15.6896 44.3786 16.0419 44.7391C16.4948 45.2027 16.9645 45.5575 17.4453 45.8007C17.9961 46.0839 18.4518 46.227 18.8152 46.227C18.9103 46.227 18.9969 46.2012 19.0696 46.1497C19.1731 46.0753 19.2234 45.9781 19.2234 45.8636C19.2234 45.5861 19.0193 45.2856 18.6111 44.968C18.4406 44.8278 18.2645 44.7162 18.0827 44.6275C17.9038 44.5417 17.8088 44.4988 17.8032 44.5045Z" fill="white"/>
<path d="M17.2495 41.3971C17.6913 41.5716 18.0491 41.7033 18.3203 41.7891C18.5915 41.8749 18.7816 41.9207 18.8906 41.9207C19.0332 41.9207 19.1031 41.852 19.1031 41.7118C19.1031 41.503 18.9102 41.234 18.5244 40.9021C18.3371 40.7447 17.9988 40.513 17.5123 40.2068C17.3194 40.0838 17.2244 39.9579 17.2244 39.8234C17.2244 39.6717 17.2943 39.5973 17.4368 39.5973C17.6801 39.5973 18.1749 39.8835 18.9186 40.4586C19.6958 41.0566 20.0844 41.6117 20.0844 42.121C20.0844 42.3413 19.9949 42.5216 19.8132 42.6618C19.6818 42.7591 19.5252 42.8106 19.3379 42.8106C19.0192 42.8106 18.5803 42.7104 18.0184 42.5159C17.4564 42.3184 16.7743 42.0266 15.9691 41.6375C13.9227 40.6389 12.2341 39.6202 10.9061 38.5816C9.84098 37.7518 9.30701 37.0622 9.30701 36.5186C9.30701 36.3441 9.37131 36.201 9.5027 36.0923C9.6341 35.975 9.78227 35.9177 9.95281 35.9177C10.7468 35.9177 12.0691 36.6445 13.9171 38.0952C14.739 38.7447 15.5609 39.523 16.3857 40.43C16.5981 40.6589 16.8861 40.9851 17.2495 41.3971ZM15.8964 40.7791C14.8872 39.5716 13.6096 38.4929 12.0691 37.5401C11.2696 37.0479 10.7384 36.799 10.4784 36.799C10.3526 36.799 10.2911 36.8534 10.2911 36.965C10.2911 37.2854 10.9117 37.8663 12.153 38.7075C13.1734 39.4028 14.4231 40.0952 15.8964 40.7791Z" fill="white"/>
<path d="M18.6696 36.4328C18.9995 36.6245 19.2763 36.8134 19.5027 36.9994C19.9444 37.3656 20.1653 37.729 20.1653 38.0866C20.1653 38.4014 20.0199 38.6446 19.732 38.8191C19.5447 38.9307 19.3238 38.9851 19.0694 38.9851C18.4404 38.9851 17.7442 38.7819 16.9838 38.3756C16.1395 37.9236 15.4881 37.377 15.0352 36.739C14.7417 36.3212 14.5935 35.9178 14.5935 35.5287C14.5935 35.2854 14.6662 35.0823 14.8144 34.9192C14.9458 34.779 15.0911 34.7103 15.2561 34.7103C15.3819 34.7103 15.5552 34.759 15.7761 34.8591C15.8963 34.7704 15.9997 34.7275 16.092 34.7275C16.2122 34.7275 16.4079 34.8076 16.6791 34.9707C16.9559 35.1395 17.3249 35.3083 17.7862 35.4772C18.2754 35.6574 18.6668 35.7461 18.9604 35.7461C19.198 35.7461 19.3937 35.6746 19.5475 35.5287C19.5866 35.4886 19.6537 35.3684 19.7432 35.171C19.8103 35.0251 19.9305 34.9535 20.101 34.9535C20.21 34.9535 20.2967 34.9936 20.3638 35.0766C20.4365 35.1624 20.4756 35.2654 20.4756 35.3827C20.4756 35.6975 20.3386 35.9664 20.0675 36.1925C19.8466 36.3785 19.567 36.47 19.2343 36.47C19.1197 36.47 18.9324 36.4586 18.6696 36.4328ZM15.8711 35.3455C15.7453 35.4142 15.6531 35.4915 15.5944 35.5716C15.5357 35.6517 15.5049 35.7404 15.5049 35.832C15.5049 36.2726 15.8823 36.7533 16.6372 37.2683C17.4703 37.8377 18.1776 38.121 18.7563 38.121C18.8989 38.121 19.0051 38.0924 19.0806 38.038C19.1533 37.9836 19.1924 37.9007 19.1924 37.7891C19.1924 37.5115 18.9045 37.1853 18.3257 36.8134C18.007 36.6045 17.5402 36.347 16.9223 36.038C16.5197 35.8348 16.2541 35.686 16.1227 35.5945C16.0501 35.5515 15.969 35.4686 15.8711 35.3455Z" fill="white"/>
<path d="M12.3182 28.9048C12.3182 28.5157 12.4552 28.2181 12.7264 28.0092C12.9417 27.8404 13.2017 27.7574 13.5092 27.7574C14.0599 27.7574 14.6862 27.9463 15.3907 28.324C15.9974 28.6559 16.5425 29.0679 17.0234 29.5601C17.3365 29.8862 17.4903 30.1409 17.4903 30.3269C17.4903 30.4499 17.4315 30.5615 17.3113 30.6674C17.2275 30.7418 17.1296 30.7818 17.0234 30.7818C16.8249 30.7818 16.5984 30.6044 16.344 30.2496C15.9806 29.7489 15.5836 29.354 15.1531 29.0565C14.5296 28.6216 14.0012 28.4041 13.5707 28.4041C13.3946 28.4041 13.2632 28.4442 13.1793 28.5214C13.0954 28.5987 13.0507 28.716 13.0507 28.8734C13.0507 29.1938 13.2772 29.6459 13.7301 30.2325C14.2417 30.8991 14.935 31.6059 15.8156 32.347C16.9339 33.294 18.0326 34.0122 19.1173 34.5072C20.2412 35.0194 21.2001 35.2741 21.9941 35.2741C22.3743 35.2741 22.6986 35.1596 22.9642 34.9336C23.2661 34.6846 23.4143 34.3785 23.4143 34.018C23.4143 33.3913 22.939 32.6016 21.9857 31.6488C21.6978 31.3655 21.2756 31.0193 20.7277 30.613C20.3754 30.3469 20.1266 30.1752 19.9784 30.098C19.8135 30.0121 19.7324 29.9091 19.7324 29.7918C19.7324 29.6631 19.7911 29.6001 19.9113 29.6001C20.1657 29.6001 20.7388 29.9263 21.6307 30.5758C22.3743 31.1166 22.981 31.7118 23.4506 32.3613C23.979 33.0938 24.2418 33.7833 24.2418 34.4328C24.2418 35.111 23.9455 35.6374 23.3472 36.0094C22.967 36.2469 22.5337 36.3671 22.0444 36.3671C20.8199 36.3671 19.2739 35.7748 17.4064 34.5902C15.8184 33.5802 14.538 32.5158 13.5679 31.3941C12.7348 30.427 12.3182 29.5973 12.3182 28.9048Z" fill="white"/>
<path d="M17.7727 25.9377C17.7727 25.4627 18.0551 25.2224 18.6226 25.2224C19.3774 25.2224 20.3336 25.58 21.491 26.2925C22.7434 27.0707 23.3725 27.8233 23.3725 28.5472C23.3725 28.8848 23.2187 29.1309 22.914 29.2882C22.7602 29.3684 22.5757 29.4113 22.3604 29.4113C21.6335 29.4113 20.8452 29.1566 19.9953 28.6445C19.2069 28.1695 18.5946 27.6087 18.1585 26.9649C17.8985 26.5872 17.7727 26.2438 17.7727 25.9377ZM20.9877 26.8418C20.8731 26.9878 20.7864 27.0593 20.7249 27.0593C20.6802 27.0593 20.5544 26.9677 20.3503 26.7818C19.7772 26.2581 19.3159 25.9978 18.9637 25.9978C18.9189 25.9978 18.8742 26.0121 18.8267 26.0407C18.7428 26.0865 18.6981 26.1609 18.6981 26.2581C18.6981 26.4441 18.8742 26.7159 19.2265 27.0765C19.6794 27.54 20.149 27.8948 20.6299 28.138C21.1806 28.4213 21.6363 28.5643 21.9998 28.5643C22.0948 28.5643 22.1815 28.5386 22.2542 28.4871C22.3576 28.4127 22.4079 28.3154 22.4079 28.201C22.4079 27.9234 22.2039 27.623 21.7957 27.3054C21.6252 27.1652 21.449 27.0536 21.2673 26.9649C21.0884 26.8762 20.9933 26.8361 20.9877 26.8418Z" fill="white"/>
<path d="M20.4341 23.7344C20.8758 23.909 21.2337 24.0406 21.5049 24.1264C21.776 24.2123 21.9661 24.2581 22.0752 24.2581C22.2178 24.2581 22.2876 24.1894 22.2876 24.0492C22.2876 23.8403 22.0947 23.5713 21.7089 23.2394C21.5216 23.0821 21.1834 22.8503 20.6969 22.5441C20.5068 22.4182 20.4089 22.2923 20.4089 22.1579C20.4089 22.0062 20.4788 21.9318 20.6214 21.9318C20.8646 21.9318 21.3595 22.218 22.1031 22.7931C22.8803 23.3911 23.2689 23.9462 23.2689 24.4555C23.2689 24.6758 23.1795 24.8561 22.9978 24.9963C22.8664 25.0935 22.7098 25.1451 22.5225 25.1451C22.2038 25.1451 21.7649 25.0449 21.2029 24.8503C20.641 24.6529 19.9588 24.3611 19.1537 23.9719C17.1072 22.9733 15.4187 21.9547 14.0907 20.9161C13.0256 20.0863 12.4916 19.3967 12.4916 18.8531C12.4916 18.6785 12.5559 18.5355 12.6873 18.4267C12.8187 18.3094 12.9668 18.2522 13.1374 18.2522C13.9314 18.2522 15.2537 18.979 17.1017 20.4296C17.9236 21.0792 18.7455 21.8574 19.5702 22.7645C19.7827 22.9962 20.0735 23.3224 20.4341 23.7344ZM19.081 23.1135C18.0718 21.9061 16.7941 20.8274 15.2537 19.8746C14.4541 19.3824 13.923 19.1335 13.663 19.1335C13.5372 19.1335 13.4757 19.1878 13.4757 19.2994C13.4757 19.6199 14.0963 20.2007 15.3376 21.042C16.3608 21.7401 17.6077 22.4297 19.081 23.1135Z" fill="white"/>
<path d="M21.857 18.7701C22.1869 18.9618 22.4637 19.1507 22.6901 19.3366C23.1318 19.7029 23.3527 20.0663 23.3527 20.4239C23.3527 20.7387 23.2073 20.9819 22.9193 21.1564C22.732 21.268 22.5112 21.3224 22.2568 21.3224C21.6277 21.3224 20.9316 21.1192 20.1712 20.7129C19.3269 20.2608 18.6755 19.7143 18.2226 19.0763C17.9291 18.6585 17.7809 18.2551 17.7809 17.8659C17.7809 17.6227 17.8536 17.4196 18.0017 17.2565C18.1331 17.1163 18.2785 17.0476 18.4435 17.0476C18.5693 17.0476 18.7426 17.0962 18.9635 17.1964C19.0837 17.1077 19.1871 17.0648 19.2794 17.0648C19.3996 17.0648 19.5953 17.1449 19.8665 17.308C20.1432 17.4768 20.5123 17.6456 20.9736 17.8144C21.4628 17.9947 21.8542 18.0834 22.1477 18.0834C22.3854 18.0834 22.5811 18.0119 22.7348 17.8659C22.774 17.8259 22.8411 17.7057 22.9305 17.5083C22.9976 17.3623 23.1178 17.2908 23.2884 17.2908C23.3974 17.2908 23.4841 17.3309 23.5512 17.4139C23.6239 17.4997 23.663 17.6027 23.663 17.72C23.663 18.0348 23.526 18.3037 23.2548 18.5298C23.034 18.7157 22.7544 18.8073 22.4217 18.8073C22.3043 18.8044 22.117 18.793 21.857 18.7701ZM19.0557 17.6828C18.9299 17.7515 18.8377 17.8287 18.7789 17.9089C18.7202 17.989 18.6895 18.0777 18.6895 18.1692C18.6895 18.6099 19.0669 19.0906 19.8217 19.6056C20.6548 20.175 21.3622 20.4583 21.9409 20.4583C22.0834 20.4583 22.1897 20.4297 22.2652 20.3753C22.3378 20.3209 22.377 20.238 22.377 20.1264C22.377 19.8488 22.089 19.5226 21.5103 19.1507C21.1916 18.9418 20.7247 18.6843 20.1069 18.3752C19.7043 18.1721 19.4387 18.0233 19.3073 17.9317C19.2346 17.8888 19.1536 17.803 19.0557 17.6828Z" fill="white"/>
</g>
<defs>
<clipPath id="clip0_4_1912">
<rect width="36" height="65" fill="white"/>
</clipPath>
</defs>
</svg>
