<svg width="386" height="180" viewBox="0 0 386 180" fill="none" xmlns="http://www.w3.org/2000/svg">
<path d="M386 0V162.513C352.498 165.849 306.296 164.638 243.719 152.726C120.157 129.209 37.5022 150.034 0 164.046V0H386Z" fill="#6327FE"/>
<path d="M386 162.513V179.345C352.368 181.522 306.128 178.689 243.797 164.496C121.348 136.615 38.0589 154.374 0 167.046V164.046C37.5022 150.034 120.157 129.21 243.719 152.726C306.296 164.638 352.498 165.849 386 162.513Z" fill="white"/>
<path d="M128.34 26.3493C130.541 26.3493 132.224 27.1349 133.402 28.6932C134.347 29.9295 134.826 31.4363 134.826 33.2006C134.826 36.3687 133.764 39.9747 131.628 44.0185C129.764 47.5086 127.434 50.6381 124.638 53.4198C122.799 55.2099 121.363 56.1114 120.314 56.1114C119.628 56.1114 118.981 55.7637 118.398 55.0811C117.971 54.5917 117.764 54.038 117.764 53.4198C117.764 52.2736 118.761 50.9729 120.767 49.5048C123.589 47.4185 125.829 45.139 127.512 42.6534C129.971 39.0603 131.201 36.0339 131.201 33.5484C131.201 32.5438 130.981 31.784 130.541 31.2946C130.101 30.8052 129.44 30.5606 128.547 30.5606C126.748 30.5606 124.185 31.8613 120.871 34.4756C117.104 37.4119 113.116 41.4042 108.922 46.4654C103.576 52.8918 99.511 59.2151 96.7278 65.4483C93.841 71.9133 92.4041 77.4252 92.4041 81.9842C92.4041 84.1736 93.0384 86.028 94.32 87.5606C95.731 89.2863 97.4527 90.1492 99.4851 90.1492C103.032 90.1492 107.485 87.406 112.858 81.9327C114.463 80.2714 116.417 77.8502 118.709 74.695C120.223 72.6731 121.181 71.2307 121.608 70.3936C122.1 69.4535 122.67 68.977 123.33 68.977C124.055 68.977 124.405 69.3247 124.405 70.0073C124.405 71.4754 122.566 74.7723 118.903 79.8979C115.848 84.1736 112.495 87.6636 108.819 90.3681C104.689 93.4074 100.78 94.9142 97.1162 94.9142C93.2844 94.9142 90.307 93.2013 88.2099 89.7757C86.8636 87.5863 86.1904 85.1008 86.1904 82.2933C86.1904 75.2488 89.5303 66.3627 96.223 55.622C101.932 46.4912 107.951 39.1376 114.282 33.5484C119.744 28.7447 124.443 26.3493 128.34 26.3493Z" fill="white"/>
<path d="M145.118 57.7083C147.81 57.7083 149.157 59.3439 149.157 62.6021C149.157 66.9422 147.137 72.4413 143.111 79.0865C138.723 86.2985 134.477 89.9044 130.373 89.9044C128.47 89.9044 127.085 89.0287 126.192 87.2644C125.739 86.3886 125.506 85.3197 125.506 84.0834C125.506 79.9108 126.943 75.3776 129.83 70.4837C132.522 65.9505 135.681 62.4218 139.318 59.9105C141.441 58.4424 143.37 57.7083 145.118 57.7083ZM140.004 76.2018C139.189 75.545 138.775 75.0427 138.775 74.6821C138.775 74.4245 139.292 73.7034 140.354 72.5314C143.306 69.2345 144.781 66.5816 144.781 64.5597C144.781 64.3021 144.704 64.0445 144.535 63.7741C144.276 63.2847 143.862 63.04 143.306 63.04C142.257 63.04 140.716 64.0574 138.684 66.0793C136.056 68.6936 134.063 71.3852 132.678 74.1541C131.072 77.3222 130.27 79.9494 130.27 82.0357C130.27 82.5895 130.412 83.0789 130.71 83.5039C131.137 84.0963 131.681 84.3796 132.328 84.3796C133.907 84.3796 135.59 83.2077 137.39 80.8509C138.179 79.8721 138.814 78.8676 139.305 77.8116C139.797 76.7813 140.03 76.2404 140.004 76.2018Z" fill="white"/>
<path d="M157.557 73.0337C156.574 75.5836 155.836 77.6313 155.344 79.2025C154.852 80.7736 154.606 81.8554 154.606 82.4865C154.606 83.2978 154.994 83.7099 155.784 83.7099C156.962 83.7099 158.49 82.6024 160.354 80.3873C161.234 79.3055 162.554 77.3737 164.289 74.5662C164.975 73.4587 165.7 72.9049 166.451 72.9049C167.305 72.9049 167.732 73.317 167.732 74.1284C167.732 75.5321 166.114 78.3654 162.865 82.641C159.486 87.1098 156.354 89.3507 153.467 89.3507C152.224 89.3507 151.201 88.8356 150.412 87.7795C149.855 87.0326 149.57 86.1182 149.57 85.0364C149.57 83.2077 150.127 80.6835 151.24 77.451C152.354 74.2185 154.011 70.2906 156.211 65.6543C161.855 53.8834 167.603 44.1731 173.48 36.5362C178.166 30.406 182.05 27.3409 185.131 27.3409C186.115 27.3409 186.917 27.7144 187.539 28.4614C188.199 29.2083 188.522 30.0712 188.522 31.0499C188.522 35.6218 184.419 43.2201 176.224 53.8577C172.548 58.5841 168.16 63.3233 163.046 68.0497C161.726 69.2732 159.888 70.9345 157.557 73.0337ZM161.053 65.2422C167.875 59.434 173.972 52.0933 179.344 43.2201C182.127 38.6225 183.526 35.5703 183.526 34.0764C183.526 33.3552 183.215 32.9946 182.594 32.9946C180.794 32.9946 177.506 36.5619 172.755 43.7095C168.82 49.5949 164.923 56.7682 161.053 65.2422Z" fill="white"/>
<path d="M185.596 81.1986C184.509 83.0917 183.448 84.6887 182.399 85.9894C180.328 88.5393 178.282 89.8014 176.25 89.8014C174.477 89.8014 173.104 88.9643 172.121 87.303C171.499 86.2212 171.188 84.9591 171.188 83.491C171.188 79.8721 172.341 75.8798 174.632 71.5011C177.195 66.646 180.276 62.9112 183.875 60.2969C186.231 58.5969 188.509 57.7469 190.71 57.7469C192.082 57.7469 193.234 58.1719 194.153 59.0219C194.943 59.7689 195.331 60.6188 195.331 61.5718C195.331 62.293 195.046 63.2847 194.49 64.5596C194.982 65.2422 195.228 65.8475 195.228 66.3755C195.228 67.0581 194.775 68.1914 193.856 69.7497C192.898 71.3466 191.953 73.4715 191.008 76.1116C189.985 78.9191 189.48 81.1728 189.48 82.8599C189.48 84.225 189.894 85.3583 190.71 86.2341C190.943 86.4659 191.616 86.8394 192.729 87.3545C193.545 87.7409 193.959 88.4363 193.959 89.415C193.959 90.0332 193.726 90.5355 193.273 90.9347C192.781 91.3597 192.211 91.5657 191.551 91.5657C189.778 91.5657 188.25 90.7802 186.982 89.2219C185.933 87.9469 185.402 86.35 185.402 84.4311C185.402 83.7743 185.467 82.7054 185.596 81.1986ZM191.745 65.1005C191.357 64.3793 190.93 63.8513 190.464 63.5165C189.998 63.1688 189.506 63.0014 188.988 63.0014C186.49 63.0014 183.784 65.1649 180.871 69.505C177.661 74.2958 176.056 78.3653 176.056 81.688C176.056 82.4993 176.211 83.1175 176.522 83.5425C176.833 83.9675 177.299 84.1735 177.92 84.1735C179.499 84.1735 181.325 82.5122 183.422 79.1767C184.6 77.3479 186.063 74.6563 187.797 71.1019C188.949 68.7838 189.778 67.2512 190.309 66.5043C190.58 66.1308 191.046 65.6543 191.745 65.1005Z" fill="white"/>
<path d="M228.121 44.6625C230.322 44.6625 232.005 45.4481 233.183 47.0064C234.128 48.2427 234.607 49.7495 234.607 51.5138C234.607 54.6819 233.545 58.2879 231.409 62.3317C229.545 65.8218 227.215 68.9512 224.419 71.733C222.581 73.5231 221.144 74.4246 220.095 74.4246C219.409 74.4246 218.762 74.0769 218.179 73.3943C217.752 72.9049 217.545 72.3511 217.545 71.733C217.545 70.5868 218.542 69.2861 220.548 67.8179C223.37 65.7316 225.61 63.4521 227.293 60.9666C229.752 57.3735 230.982 54.3471 230.982 51.8615C230.982 50.857 230.762 50.0972 230.322 49.6078C229.882 49.1184 229.222 48.8737 228.328 48.8737C226.529 48.8737 223.966 50.1745 220.652 52.7888C216.885 55.7251 212.898 59.7174 208.703 64.7786C203.357 71.205 199.292 77.5283 196.509 83.7615C193.622 90.2264 192.185 95.7384 192.185 100.297C192.185 102.487 192.82 104.341 194.101 105.874C195.512 107.599 197.234 108.462 199.266 108.462C202.813 108.462 207.267 105.719 212.639 100.246C214.244 98.5845 216.199 96.1634 218.49 93.0082C220.005 90.9863 220.963 89.5439 221.39 88.7068C221.882 87.7666 222.451 87.2901 223.112 87.2901C223.836 87.2901 224.186 87.6379 224.186 88.3204C224.186 89.7886 222.348 93.0855 218.684 98.2111C215.629 102.487 212.276 105.977 208.6 108.681C204.47 111.721 200.561 113.227 196.897 113.227C193.066 113.227 190.088 111.515 187.991 108.089C186.645 105.9 185.972 103.414 185.972 100.606C185.972 93.562 189.312 84.6758 196.004 73.9352C201.713 64.8044 207.733 57.4508 214.063 51.8615C219.526 47.0579 224.212 44.6625 228.121 44.6625Z" fill="white"/>
<path d="M244.886 76.0344C247.579 76.0344 248.925 77.6699 248.925 80.9282C248.925 85.2682 246.906 90.7673 242.88 97.4126C238.491 104.625 234.245 108.23 230.142 108.23C228.239 108.23 226.854 107.355 225.961 105.59C225.507 104.715 225.274 103.646 225.274 102.409C225.274 98.2368 226.711 93.7036 229.598 88.8098C232.291 84.2766 235.449 80.7479 239.087 78.2366C241.223 76.7684 243.152 76.0344 244.886 76.0344ZM239.773 94.5278C238.957 93.871 238.543 93.3688 238.543 93.0082C238.543 92.7506 239.061 92.0294 240.123 90.8575C243.074 87.5606 244.55 84.9076 244.55 82.8857C244.55 82.6281 244.472 82.3706 244.304 82.1001C244.045 81.6107 243.631 81.366 243.074 81.366C242.026 81.366 240.485 82.3834 238.453 84.4054C235.825 87.0197 233.831 89.7113 232.446 92.4801C230.841 95.6482 230.038 98.2754 230.038 100.362C230.038 100.916 230.181 101.405 230.478 101.83C230.906 102.422 231.449 102.706 232.097 102.706C233.676 102.706 235.359 101.534 237.158 99.1769C237.948 98.1982 238.582 97.1937 239.074 96.1376C239.579 95.0945 239.812 94.5536 239.773 94.5278Z" fill="white"/>
<path d="M257.341 91.3469C256.357 93.8968 255.619 95.9445 255.127 97.5156C254.635 99.0868 254.389 100.169 254.389 100.8C254.389 101.611 254.778 102.023 255.567 102.023C256.745 102.023 258.273 100.916 260.137 98.7005C261.017 97.6187 262.338 95.6869 264.072 92.8794C264.758 91.7719 265.483 91.2181 266.234 91.2181C267.088 91.2181 267.516 91.6302 267.516 92.4415C267.516 93.8453 265.897 96.6785 262.648 100.954C259.27 105.423 256.137 107.664 253.25 107.664C252.007 107.664 250.985 107.149 250.195 106.093C249.638 105.346 249.354 104.431 249.354 103.35C249.354 101.521 249.91 98.9967 251.023 95.7642C252.137 92.5317 253.794 88.6037 255.994 83.9675C261.639 72.1966 267.386 62.4862 273.263 54.8493C277.949 48.7192 281.833 45.6541 284.914 45.6541C285.898 45.6541 286.7 46.0276 287.322 46.7745C287.982 47.5215 288.306 48.3843 288.306 49.3631C288.306 53.935 284.202 61.5332 276.008 72.1708C272.331 76.8972 267.943 81.6365 262.829 86.3629C261.496 87.5992 259.658 89.2605 257.341 91.3469ZM260.823 83.5683C267.645 77.7601 273.742 70.4194 279.115 61.5461C281.898 56.9485 283.296 53.8963 283.296 52.4024C283.296 51.6812 282.985 51.3206 282.364 51.3206C280.564 51.3206 277.276 54.888 272.525 62.0355C268.603 67.9081 264.694 75.0814 260.823 83.5683Z" fill="white"/>
<path d="M285.365 99.5118C284.278 101.405 283.216 103.002 282.168 104.303C280.096 106.852 278.051 108.115 276.019 108.115C274.245 108.115 272.873 107.277 271.889 105.616C271.268 104.534 270.957 103.272 270.957 101.804C270.957 98.1853 272.109 94.193 274.4 89.8143C276.964 84.9591 280.045 81.2244 283.643 78.6101C285.999 76.9101 288.278 76.0601 290.478 76.0601C291.851 76.0601 293.003 76.4851 293.922 77.3351C294.711 78.082 295.1 78.932 295.1 79.885C295.1 80.6062 294.815 81.5979 294.258 82.8728C294.75 83.5554 294.996 84.1607 294.996 84.6887C294.996 85.3712 294.543 86.5045 293.624 88.0628C292.666 89.6598 291.721 91.7847 290.776 94.4248C289.753 97.2323 289.249 99.486 289.249 101.173C289.249 102.538 289.663 103.672 290.478 104.547C290.711 104.779 291.385 105.153 292.498 105.668C293.313 106.054 293.728 106.749 293.728 107.728C293.728 108.346 293.495 108.849 293.042 109.248C292.55 109.673 291.98 109.879 291.32 109.879C289.546 109.879 288.019 109.093 286.75 107.535C285.702 106.26 285.171 104.663 285.171 102.744C285.171 102.087 285.236 101.019 285.365 99.5118ZM291.514 83.4137C291.126 82.6925 290.698 82.1645 290.232 81.8297C289.766 81.4819 289.274 81.3145 288.757 81.3145C286.258 81.3145 283.553 83.4781 280.64 87.8181C277.43 92.6089 275.824 96.6785 275.824 100.001C275.824 100.813 275.98 101.431 276.29 101.856C276.601 102.281 277.067 102.487 277.689 102.487C279.268 102.487 281.093 100.825 283.19 97.4899C284.368 95.6611 285.831 92.9695 287.566 89.4151C288.718 87.097 289.546 85.5644 290.077 84.8175C290.349 84.444 290.828 83.9675 291.514 83.4137Z" fill="white"/>
<path opacity="0.49" d="M31.1976 156.55C39.2264 156.55 45.7351 150.075 45.7351 142.088C45.7351 134.101 39.2264 127.625 31.1976 127.625C23.1688 127.625 16.6602 134.101 16.6602 142.088C16.6602 150.075 23.1688 156.55 31.1976 156.55Z" fill="white"/>
<path opacity="0.49" d="M260.82 160.762C268.848 160.762 275.357 154.287 275.357 146.299C275.357 138.312 268.848 131.837 260.82 131.837C252.791 131.837 246.282 138.312 246.282 146.299C246.282 154.287 252.791 160.762 260.82 160.762Z" fill="white"/>
<path opacity="0.49" d="M64.5057 121.933C68.5237 121.933 71.7809 118.693 71.7809 114.695C71.7809 110.698 68.5237 107.458 64.5057 107.458C60.4877 107.458 57.2305 110.698 57.2305 114.695C57.2305 118.693 60.4877 121.933 64.5057 121.933Z" fill="white"/>
<path opacity="0.49" d="M142.1 146.312C146.118 146.312 149.376 143.072 149.376 139.074C149.376 135.077 146.118 131.837 142.1 131.837C138.082 131.837 134.825 135.077 134.825 139.074C134.825 143.072 138.082 146.312 142.1 146.312Z" fill="white"/>
<path opacity="0.49" d="M315.68 137.941C319.698 137.941 322.956 134.701 322.956 130.703C322.956 126.706 319.698 123.466 315.68 123.466C311.662 123.466 308.405 126.706 308.405 130.703C308.405 134.701 311.662 137.941 315.68 137.941Z" fill="white"/>
<path opacity="0.49" d="M22.3684 97.2709C24.7491 97.2709 26.6791 95.3508 26.6791 92.9824C26.6791 90.6139 24.7491 88.6938 22.3684 88.6938C19.9876 88.6938 18.0576 90.6139 18.0576 92.9824C18.0576 95.3508 19.9876 97.2709 22.3684 97.2709Z" fill="white"/>
<path opacity="0.49" d="M348.343 154.876C350.724 154.876 352.654 152.956 352.654 150.588C352.654 148.219 350.724 146.299 348.343 146.299C345.962 146.299 344.032 148.219 344.032 150.588C344.032 152.956 345.962 154.876 348.343 154.876Z" fill="white"/>
<path opacity="0.49" d="M220.961 134.992C223.342 134.992 225.272 133.072 225.272 130.703C225.272 128.335 223.342 126.415 220.961 126.415C218.58 126.415 216.65 128.335 216.65 130.703C216.65 133.072 218.58 134.992 220.961 134.992Z" fill="white"/>
<path opacity="0.49" d="M361.546 104.818C363.927 104.818 365.857 102.898 365.857 100.529C365.857 98.1608 363.927 96.2407 361.546 96.2407C359.165 96.2407 357.235 98.1608 357.235 100.529C357.235 102.898 359.165 104.818 361.546 104.818Z" fill="white"/>
<path opacity="0.49" d="M373.936 136.872C375.644 136.872 377.03 135.494 377.03 133.794C377.03 132.094 375.644 130.716 373.936 130.716C372.227 130.716 370.842 132.094 370.842 133.794C370.842 135.494 372.227 136.872 373.936 136.872Z" fill="white"/>
<path opacity="0.49" d="M97.1018 131.94C99.4825 131.94 101.413 130.02 101.413 127.651C101.413 125.283 99.4825 123.363 97.1018 123.363C94.721 123.363 92.791 125.283 92.791 127.651C92.791 130.02 94.721 131.94 97.1018 131.94Z" fill="white"/>
<path opacity="0.49" d="M123.33 112.03C124.516 112.03 125.478 111.073 125.478 109.892C125.478 108.711 124.516 107.754 123.33 107.754C122.143 107.754 121.181 108.711 121.181 109.892C121.181 111.073 122.143 112.03 123.33 112.03Z" fill="white"/>
<path opacity="0.49" d="M55.0825 78.1722C56.2693 78.1722 57.2314 77.2151 57.2314 76.0344C57.2314 74.8537 56.2693 73.8965 55.0825 73.8965C53.8957 73.8965 52.9336 74.8537 52.9336 76.0344C52.9336 77.2151 53.8957 78.1722 55.0825 78.1722Z" fill="white"/>
<path opacity="0.49" d="M178.205 127.651C179.391 127.651 180.353 126.694 180.353 125.513C180.353 124.333 179.391 123.376 178.205 123.376C177.018 123.376 176.056 124.333 176.056 125.513C176.056 126.694 177.018 127.651 178.205 127.651Z" fill="white"/>
<path opacity="0.49" d="M327.747 86.5174C328.933 86.5174 329.895 85.5603 329.895 84.3796C329.895 83.1989 328.933 82.2418 327.747 82.2418C326.56 82.2418 325.598 83.1989 325.598 84.3796C325.598 85.5603 326.56 86.5174 327.747 86.5174Z" fill="white"/>
</svg>
